<svg width="229" height="229" viewBox="0 0 229 229" fill="none" xmlns="http://www.w3.org/2000/svg">
<g filter="url(#filter0_d_12_2088)">
<g clip-path="url(#clip0_12_2088)">
<path d="M161.179 64.2014L140.177 43.2612L93.4941 89.7976L140.177 136.342L161.179 115.402L135.507 89.7976L161.179 64.2014Z" fill="white"/>
<path d="M88.8263 94.5191L67.8218 115.461L88.8262 136.404L109.831 115.461L88.8263 94.5191Z" fill="white"/>
<path d="M45.5042 178.739V157.739H49.9742V166.589L57.6542 157.739H62.8442L55.0442 166.349L63.4442 178.739H58.1942L52.0142 169.319L49.9742 171.569V178.739H45.5042ZM65.9101 178.739V162.839H69.5101V165.209C69.7301 164.749 70.0301 164.319 70.4101 163.919C70.7901 163.519 71.2601 163.179 71.8201 162.899C72.3801 162.619 73.0001 162.479 73.6801 162.479C74.0601 162.479 74.3801 162.499 74.6401 162.539C74.9201 162.579 75.1001 162.619 75.1801 162.659V166.169C74.9801 166.089 74.7201 166.019 74.4001 165.959C74.1001 165.879 73.6901 165.839 73.1701 165.839C72.3701 165.839 71.7201 166.009 71.2201 166.349C70.7401 166.689 70.3901 167.139 70.1701 167.699C69.9501 168.239 69.8401 168.829 69.8401 169.469V178.739H65.9101ZM80.8555 185.099C80.5555 185.099 80.2555 185.069 79.9555 185.009V181.649C80.2555 181.709 80.5555 181.739 80.8555 181.739C81.2555 181.739 81.5855 181.639 81.8455 181.439C82.1255 181.239 82.3755 180.919 82.5955 180.479C82.8355 180.039 83.0955 179.459 83.3755 178.739L76.6555 162.839H81.0955L85.4155 173.819L89.3455 162.839H93.4555L87.3355 178.739C86.7555 180.239 86.1955 181.449 85.6555 182.369C85.1155 183.309 84.4755 183.999 83.7355 184.439C83.0155 184.879 82.0555 185.099 80.8555 185.099ZM95.5878 184.739V162.839H99.2478V165.179C99.6478 164.459 100.278 163.829 101.138 163.289C101.998 162.749 103.088 162.479 104.408 162.479C106.528 162.479 108.178 163.139 109.358 164.459C110.558 165.759 111.158 167.719 111.158 170.339V170.939C111.158 172.759 110.878 174.279 110.318 175.499C109.778 176.699 109.008 177.599 108.008 178.199C107.008 178.799 105.808 179.099 104.408 179.099C103.328 179.099 102.368 178.869 101.528 178.409C100.708 177.929 100.038 177.309 99.5178 176.549V184.739H95.5878ZM103.478 175.739C104.518 175.739 105.388 175.349 106.088 174.569C106.788 173.769 107.138 172.559 107.138 170.939V170.339C107.138 168.839 106.798 167.719 106.118 166.979C105.458 166.219 104.578 165.839 103.478 165.839C102.718 165.839 102.038 165.989 101.438 166.289C100.838 166.569 100.368 166.999 100.028 167.579C99.6878 168.139 99.5178 168.859 99.5178 169.739V171.539C99.5178 172.479 99.6778 173.269 99.9978 173.909C100.338 174.529 100.808 174.989 101.408 175.289C102.008 175.589 102.698 175.739 103.478 175.739ZM120.465 178.919C119.225 178.919 118.205 178.749 117.405 178.409C116.605 178.049 116.015 177.479 115.635 176.699C115.275 175.919 115.095 174.909 115.095 173.669V166.139H112.965V162.839H115.095V159.239H119.025V162.839H122.865V166.139H119.025V173.039C119.025 173.939 119.185 174.589 119.505 174.989C119.845 175.369 120.465 175.559 121.365 175.559C121.965 175.559 122.565 175.529 123.165 175.469V178.769C122.785 178.809 122.385 178.839 121.965 178.859C121.565 178.899 121.065 178.919 120.465 178.919ZM133.08 179.099C131.64 179.099 130.31 178.809 129.09 178.229C127.89 177.629 126.93 176.729 126.21 175.529C125.49 174.309 125.13 172.779 125.13 170.939V170.339C125.13 168.599 125.49 167.149 126.21 165.989C126.93 164.829 127.89 163.959 129.09 163.379C130.31 162.779 131.64 162.479 133.08 162.479C134.52 162.479 135.84 162.779 137.04 163.379C138.26 163.959 139.23 164.829 139.95 165.989C140.67 167.149 141.03 168.599 141.03 170.339V170.939C141.03 172.739 140.67 174.249 139.95 175.469C139.23 176.669 138.26 177.579 137.04 178.199C135.84 178.799 134.52 179.099 133.08 179.099ZM133.08 175.739C133.84 175.739 134.51 175.569 135.09 175.229C135.69 174.869 136.16 174.329 136.5 173.609C136.84 172.889 137.01 171.999 137.01 170.939V170.339C137.01 169.359 136.84 168.539 136.5 167.879C136.16 167.219 135.69 166.719 135.09 166.379C134.51 166.019 133.84 165.839 133.08 165.839C132.32 165.839 131.64 166.019 131.04 166.379C130.46 166.719 130 167.219 129.66 167.879C129.32 168.539 129.15 169.359 129.15 170.339V170.939C129.15 172.019 129.32 172.919 129.66 173.639C130 174.339 130.46 174.869 131.04 175.229C131.64 175.569 132.32 175.739 133.08 175.739ZM143.898 184.739V162.839H147.558V165.179C147.958 164.459 148.588 163.829 149.448 163.289C150.308 162.749 151.398 162.479 152.718 162.479C154.838 162.479 156.488 163.139 157.668 164.459C158.868 165.759 159.468 167.719 159.468 170.339V170.939C159.468 172.759 159.188 174.279 158.628 175.499C158.088 176.699 157.318 177.599 156.318 178.199C155.318 178.799 154.118 179.099 152.718 179.099C151.638 179.099 150.678 178.869 149.838 178.409C149.018 177.929 148.348 177.309 147.828 176.549V184.739H143.898ZM151.788 175.739C152.828 175.739 153.698 175.349 154.398 174.569C155.098 173.769 155.448 172.559 155.448 170.939V170.339C155.448 168.839 155.108 167.719 154.428 166.979C153.768 166.219 152.888 165.839 151.788 165.839C151.028 165.839 150.348 165.989 149.748 166.289C149.148 166.569 148.678 166.999 148.338 167.579C147.998 168.139 147.828 168.859 147.828 169.739V171.539C147.828 172.479 147.988 173.269 148.308 173.909C148.648 174.529 149.118 174.989 149.718 175.289C150.318 175.589 151.008 175.739 151.788 175.739ZM162.655 178.739V162.839H166.585V178.739H162.655ZM164.605 161.309C163.905 161.309 163.325 161.089 162.865 160.649C162.425 160.209 162.205 159.639 162.205 158.939C162.205 158.239 162.425 157.669 162.865 157.229C163.325 156.789 163.895 156.569 164.575 156.569C165.295 156.569 165.875 156.789 166.315 157.229C166.775 157.669 167.005 158.239 167.005 158.939C167.005 159.639 166.775 160.209 166.315 160.649C165.875 161.089 165.305 161.309 164.605 161.309ZM175.24 179.099C174.1 179.099 173.13 178.889 172.33 178.469C171.53 178.029 170.92 177.429 170.5 176.669C170.08 175.909 169.87 175.049 169.87 174.089C169.87 172.489 170.34 171.289 171.28 170.489C172.24 169.689 173.67 169.289 175.57 169.289H180.31V168.539C180.31 167.499 180.07 166.769 179.59 166.349C179.13 165.929 178.39 165.719 177.37 165.719C176.47 165.719 175.82 165.879 175.42 166.199C175.02 166.499 174.79 166.879 174.73 167.339H170.77C170.83 166.419 171.12 165.599 171.64 164.879C172.18 164.139 172.94 163.559 173.92 163.139C174.92 162.699 176.12 162.479 177.52 162.479C178.88 162.479 180.06 162.679 181.06 163.079C182.08 163.479 182.87 164.129 183.43 165.029C183.99 165.909 184.27 167.099 184.27 168.599V174.689C184.27 175.529 184.28 176.269 184.3 176.909C184.34 177.529 184.4 178.139 184.48 178.739H180.79C180.71 178.299 180.66 177.969 180.64 177.749C180.64 177.509 180.64 177.159 180.64 176.699C180.22 177.339 179.56 177.899 178.66 178.379C177.76 178.859 176.62 179.099 175.24 179.099ZM176.47 176.039C177.11 176.039 177.72 175.929 178.3 175.709C178.9 175.469 179.38 175.109 179.74 174.629C180.12 174.129 180.31 173.499 180.31 172.739V171.989H176.32C175.56 171.989 174.96 172.169 174.52 172.529C174.1 172.869 173.89 173.339 173.89 173.939C173.89 174.579 174.11 175.089 174.55 175.469C174.99 175.849 175.63 176.039 176.47 176.039Z" fill="white"/>
</g>
</g>
<defs>
<filter id="filter0_d_12_2088" x="-4.44495" y="0" width="237.89" height="237.89" filterUnits="userSpaceOnUse" color-interpolation-filters="sRGB">
<feFlood flood-opacity="0" result="BackgroundImageFix"/>
<feColorMatrix in="SourceAlpha" type="matrix" values="0 0 0 0 0 0 0 0 0 0 0 0 0 0 0 0 0 0 127 0" result="hardAlpha"/>
<feOffset dy="4.44495"/>
<feGaussianBlur stdDeviation="2.22248"/>
<feComposite in2="hardAlpha" operator="out"/>
<feColorMatrix type="matrix" values="0 0 0 0 0 0 0 0 0 0 0 0 0 0 0 0 0 0 0.25 0"/>
<feBlend mode="normal" in2="BackgroundImageFix" result="effect1_dropShadow_12_2088"/>
<feBlend mode="normal" in="SourceGraphic" in2="effect1_dropShadow_12_2088" result="shape"/>
</filter>
<clipPath id="clip0_12_2088">
<rect width="229" height="229" rx="13.3349" fill="white"/>
</clipPath>
</defs>
</svg>
