<svg width="229" height="229" viewBox="0 0 229 229" fill="none" xmlns="http://www.w3.org/2000/svg">
<g filter="url(#filter0_d_12_2456)">
<g clip-path="url(#clip0_12_2456)">
<path d="M158.315 53.5479H91.7844C82.0352 53.5479 73.911 60.3445 72.5815 69.109H152.016C154.539 69.109 156.607 71.0383 156.607 73.3921V108.02C156.607 109.183 156.489 110.324 156.259 111.427H158.315C168.986 111.427 177.713 103.285 177.713 93.33V71.6447C177.707 61.6895 168.98 53.5479 158.315 53.5479Z" fill="white"/>
<path d="M72.3871 71.6454C72.3871 70.7855 72.4521 69.9421 72.5821 69.1152H51.2876V126.118H137.216C146.634 126.118 154.54 119.768 156.265 111.427H72.3871V71.6454Z" fill="white"/>
<path d="M59.5081 168.453V147.453H63.9781V164.733H73.5781V168.453H59.5081ZM81.0505 168.813C79.9105 168.813 78.9405 168.603 78.1405 168.183C77.3405 167.743 76.7305 167.143 76.3105 166.383C75.8905 165.623 75.6805 164.763 75.6805 163.803C75.6805 162.203 76.1505 161.003 77.0905 160.203C78.0505 159.403 79.4805 159.003 81.3805 159.003H86.1205V158.253C86.1205 157.213 85.8805 156.483 85.4005 156.063C84.9405 155.643 84.2005 155.433 83.1805 155.433C82.2805 155.433 81.6305 155.593 81.2305 155.913C80.8305 156.213 80.6005 156.593 80.5405 157.053H76.5805C76.6405 156.133 76.9305 155.313 77.4505 154.593C77.9905 153.853 78.7505 153.273 79.7305 152.853C80.7305 152.413 81.9305 152.193 83.3305 152.193C84.6905 152.193 85.8705 152.393 86.8705 152.793C87.8905 153.193 88.6805 153.843 89.2405 154.743C89.8005 155.623 90.0805 156.813 90.0805 158.313V164.403C90.0805 165.243 90.0905 165.983 90.1105 166.623C90.1505 167.243 90.2105 167.853 90.2905 168.453H86.6005C86.5205 168.013 86.4705 167.683 86.4505 167.463C86.4505 167.223 86.4505 166.873 86.4505 166.413C86.0305 167.053 85.3705 167.613 84.4705 168.093C83.5705 168.573 82.4305 168.813 81.0505 168.813ZM82.2805 165.753C82.9205 165.753 83.5305 165.643 84.1105 165.423C84.7105 165.183 85.1905 164.823 85.5505 164.343C85.9305 163.843 86.1205 163.213 86.1205 162.453V161.703H82.1305C81.3705 161.703 80.7705 161.883 80.3305 162.243C79.9105 162.583 79.7005 163.053 79.7005 163.653C79.7005 164.293 79.9205 164.803 80.3605 165.183C80.8005 165.563 81.4405 165.753 82.2805 165.753ZM93.5663 168.453V152.553H97.1663V154.893C97.5663 154.173 98.1863 153.543 99.0263 153.003C99.8663 152.463 101.016 152.193 102.476 152.193C104.416 152.193 105.856 152.713 106.796 153.753C107.756 154.793 108.236 156.293 108.236 158.253V168.453H104.276V159.153C104.276 157.973 104.026 157.083 103.526 156.483C103.046 155.863 102.216 155.553 101.036 155.553C100.196 155.553 99.5163 155.723 98.9963 156.063C98.4763 156.403 98.0963 156.843 97.8563 157.383C97.6163 157.923 97.4963 158.513 97.4963 159.153V168.453H93.5663ZM117.7 168.813C116.32 168.813 115.12 168.513 114.1 167.913C113.1 167.313 112.32 166.413 111.76 165.213C111.22 163.993 110.95 162.473 110.95 160.653V160.053C110.95 158.333 111.22 156.893 111.76 155.733C112.32 154.573 113.11 153.693 114.13 153.093C115.15 152.493 116.34 152.193 117.7 152.193C118.8 152.193 119.76 152.433 120.58 152.913C121.42 153.373 122.09 153.993 122.59 154.773V147.453H126.52V168.453H122.86V166.113C122.46 166.833 121.83 167.463 120.97 168.003C120.11 168.543 119.02 168.813 117.7 168.813ZM118.63 165.453C119.43 165.453 120.12 165.303 120.7 165.003C121.3 164.703 121.76 164.243 122.08 163.623C122.42 162.983 122.59 162.193 122.59 161.253V159.453C122.59 158.573 122.42 157.853 122.08 157.293C121.74 156.713 121.27 156.283 120.67 156.003C120.07 155.703 119.39 155.553 118.63 155.553C117.55 155.553 116.67 155.933 115.99 156.693C115.31 157.433 114.97 158.553 114.97 160.053V160.653C114.97 162.293 115.32 163.503 116.02 164.283C116.72 165.063 117.59 165.453 118.63 165.453ZM130.487 168.453V152.553H134.417V168.453H130.487ZM132.437 151.023C131.737 151.023 131.157 150.803 130.697 150.363C130.257 149.923 130.037 149.353 130.037 148.653C130.037 147.953 130.257 147.383 130.697 146.943C131.157 146.503 131.727 146.283 132.407 146.283C133.127 146.283 133.707 146.503 134.147 146.943C134.607 147.383 134.837 147.953 134.837 148.653C134.837 149.353 134.607 149.923 134.147 150.363C133.707 150.803 133.137 151.023 132.437 151.023ZM143.072 168.813C141.932 168.813 140.962 168.603 140.162 168.183C139.362 167.743 138.752 167.143 138.332 166.383C137.912 165.623 137.702 164.763 137.702 163.803C137.702 162.203 138.172 161.003 139.112 160.203C140.072 159.403 141.502 159.003 143.402 159.003H148.142V158.253C148.142 157.213 147.902 156.483 147.422 156.063C146.962 155.643 146.222 155.433 145.202 155.433C144.302 155.433 143.652 155.593 143.252 155.913C142.852 156.213 142.622 156.593 142.562 157.053H138.602C138.662 156.133 138.952 155.313 139.472 154.593C140.012 153.853 140.772 153.273 141.752 152.853C142.752 152.413 143.952 152.193 145.352 152.193C146.712 152.193 147.892 152.393 148.892 152.793C149.912 153.193 150.702 153.843 151.262 154.743C151.822 155.623 152.102 156.813 152.102 158.313V164.403C152.102 165.243 152.112 165.983 152.132 166.623C152.172 167.243 152.232 167.853 152.312 168.453H148.622C148.542 168.013 148.492 167.683 148.472 167.463C148.472 167.223 148.472 166.873 148.472 166.413C148.052 167.053 147.392 167.613 146.492 168.093C145.592 168.573 144.452 168.813 143.072 168.813ZM144.302 165.753C144.942 165.753 145.552 165.643 146.132 165.423C146.732 165.183 147.212 164.823 147.572 164.343C147.952 163.843 148.142 163.213 148.142 162.453V161.703H144.152C143.392 161.703 142.792 161.883 142.352 162.243C141.932 162.583 141.722 163.053 141.722 163.653C141.722 164.293 141.942 164.803 142.382 165.183C142.822 165.563 143.462 165.753 144.302 165.753ZM155.588 168.453V152.553H159.188V154.893C159.588 154.173 160.208 153.543 161.048 153.003C161.888 152.463 163.038 152.193 164.498 152.193C166.438 152.193 167.878 152.713 168.818 153.753C169.778 154.793 170.258 156.293 170.258 158.253V168.453H166.298V159.153C166.298 157.973 166.048 157.083 165.548 156.483C165.068 155.863 164.238 155.553 163.058 155.553C162.218 155.553 161.538 155.723 161.018 156.063C160.498 156.403 160.118 156.843 159.878 157.383C159.638 157.923 159.518 158.513 159.518 159.153V168.453H155.588Z" fill="white"/>
</g>
</g>
<defs>
<filter id="filter0_d_12_2456" x="-4.44495" y="0" width="237.89" height="237.89" filterUnits="userSpaceOnUse" color-interpolation-filters="sRGB">
<feFlood flood-opacity="0" result="BackgroundImageFix"/>
<feColorMatrix in="SourceAlpha" type="matrix" values="0 0 0 0 0 0 0 0 0 0 0 0 0 0 0 0 0 0 127 0" result="hardAlpha"/>
<feOffset dy="4.44495"/>
<feGaussianBlur stdDeviation="2.22248"/>
<feComposite in2="hardAlpha" operator="out"/>
<feColorMatrix type="matrix" values="0 0 0 0 0 0 0 0 0 0 0 0 0 0 0 0 0 0 0.25 0"/>
<feBlend mode="normal" in2="BackgroundImageFix" result="effect1_dropShadow_12_2456"/>
<feBlend mode="normal" in="SourceGraphic" in2="effect1_dropShadow_12_2456" result="shape"/>
</filter>
<clipPath id="clip0_12_2456">
<rect width="229" height="229" rx="13.3349" fill="white"/>
</clipPath>
</defs>
</svg>
