<svg width="229" height="229" viewBox="0 0 229 229" fill="none" xmlns="http://www.w3.org/2000/svg">
<g filter="url(#filter0_d_12_2121)">
<g clip-path="url(#clip0_12_2121)">
<path d="M158.545 43.3456H93.4682C92.9389 43.3456 92.5 43.791 92.5 44.3281V66.4664C92.5 67.0035 92.9389 67.4489 93.4682 67.4489H97.8574C98.3867 67.4489 98.8256 67.0035 98.8256 66.4664V50.1574C98.8256 49.9347 99.0064 49.7644 99.2129 49.7644H152.787C153.007 49.7644 153.174 49.9478 153.174 50.1574V104.521C153.174 104.743 152.994 104.914 152.787 104.914H136.637C136.108 104.914 135.669 105.359 135.669 105.896V110.35C135.669 110.887 136.108 111.333 136.637 111.333H158.532C159.061 111.333 159.5 110.887 159.5 110.35V44.315C159.5 43.7779 159.061 43.3325 158.532 43.3325" fill="white"/>
<path d="M122.521 105.065H100.042C99.8235 105.065 99.656 104.878 99.656 104.665V81.3309C99.656 80.7851 99.218 80.3325 98.677 80.3325H94.2844C93.7562 80.3325 93.3182 80.7851 93.3182 81.3309V104.665C93.3182 104.892 93.1508 105.065 92.9318 105.065H70.4661C69.938 105.065 69.5 105.517 69.5 106.063V110.602C69.5 111.148 69.938 111.6 70.4661 111.6H92.9447C93.1636 111.6 93.3311 111.787 93.3311 112V135.334C93.3311 135.88 93.7691 136.333 94.3101 136.333H98.7028C99.2309 136.333 99.6689 135.893 99.6689 135.334V112C99.6689 111.773 99.8492 111.6 100.055 111.6H122.534C123.062 111.6 123.5 111.148 123.5 110.602V106.063C123.5 105.517 123.062 105.065 122.534 105.065" fill="white"/>
<path d="M41.93 178.667V157.667H50C51.9 157.667 53.47 157.957 54.71 158.537C55.95 159.097 56.87 159.897 57.47 160.937C58.07 161.957 58.37 163.167 58.37 164.567C58.37 165.967 58.07 167.187 57.47 168.227C56.87 169.247 55.95 170.047 54.71 170.627C53.47 171.187 51.9 171.467 50 171.467H46.4V178.667H41.93ZM46.4 167.747H49.55C51.15 167.747 52.27 167.477 52.91 166.937C53.57 166.397 53.9 165.607 53.9 164.567C53.9 163.547 53.57 162.767 52.91 162.227C52.27 161.667 51.15 161.387 49.55 161.387H46.4V167.747ZM66.6512 178.847C65.4312 178.847 64.4312 178.687 63.6512 178.367C62.8912 178.027 62.3312 177.467 61.9712 176.687C61.6112 175.887 61.4312 174.777 61.4312 173.357V157.667H65.3612V172.877C65.3612 173.897 65.5012 174.587 65.7812 174.947C66.0812 175.307 66.6612 175.487 67.5212 175.487C67.7412 175.487 67.9312 175.487 68.0912 175.487C68.2512 175.467 68.4112 175.447 68.5712 175.427V178.727C68.4712 178.767 68.3012 178.797 68.0612 178.817C67.8212 178.837 67.5712 178.847 67.3112 178.847C67.0512 178.847 66.8312 178.847 66.6512 178.847ZM76.6135 179.027C74.7735 179.027 73.3835 178.507 72.4435 177.467C71.5035 176.407 71.0335 174.777 71.0335 172.577V162.767H74.9635V172.037C74.9635 173.237 75.1935 174.147 75.6535 174.767C76.1335 175.367 76.9335 175.667 78.0535 175.667C78.8535 175.667 79.4935 175.497 79.9735 175.157C80.4735 174.817 80.8435 174.377 81.0835 173.837C81.3235 173.297 81.4435 172.697 81.4435 172.037V162.767H85.4035V178.667H81.7435V176.297C81.3635 177.037 80.7535 177.677 79.9135 178.217C79.0935 178.757 77.9935 179.027 76.6135 179.027ZM95.4453 179.027C94.1453 179.027 93.0553 178.897 92.1753 178.637C91.2953 178.357 90.5653 177.987 89.9853 177.527C89.4253 177.047 89.0053 176.507 88.7253 175.907C88.4653 175.307 88.3053 174.677 88.2453 174.017H92.2053C92.3053 174.537 92.6153 174.967 93.1353 175.307C93.6553 175.627 94.4253 175.787 95.4453 175.787C96.6053 175.787 97.4353 175.627 97.9353 175.307C98.4353 174.987 98.6853 174.577 98.6853 174.077C98.6853 173.717 98.5753 173.427 98.3553 173.207C98.1353 172.967 97.7453 172.767 97.1853 172.607C96.6253 172.427 95.8353 172.247 94.8153 172.067C93.9353 171.947 93.1253 171.787 92.3853 171.587C91.6653 171.367 91.0253 171.067 90.4653 170.687C89.9053 170.307 89.4653 169.837 89.1453 169.277C88.8453 168.697 88.6953 167.997 88.6953 167.177C88.6953 166.297 88.9553 165.497 89.4753 164.777C90.0153 164.057 90.7853 163.487 91.7853 163.067C92.8053 162.627 94.0253 162.407 95.4453 162.407C96.9853 162.407 98.2153 162.647 99.1353 163.127C100.055 163.607 100.745 164.227 101.205 164.987C101.665 165.747 101.945 166.557 102.045 167.417H98.0853C97.9253 166.837 97.6153 166.397 97.1553 166.097C96.6953 165.797 96.1253 165.647 95.4453 165.647C94.4453 165.647 93.7253 165.807 93.2853 166.127C92.8653 166.427 92.6553 166.807 92.6553 167.267C92.6553 167.747 92.8853 168.117 93.3453 168.377C93.8253 168.637 94.7953 168.867 96.2553 169.067C97.1553 169.187 97.9853 169.367 98.7453 169.607C99.5253 169.827 100.205 170.127 100.785 170.507C101.365 170.887 101.815 171.367 102.135 171.947C102.475 172.507 102.645 173.197 102.645 174.017C102.645 174.997 102.375 175.867 101.835 176.627C101.315 177.367 100.515 177.957 99.4353 178.397C98.3753 178.817 97.0453 179.027 95.4453 179.027ZM110.387 178.667L103.667 162.767H108.107L112.427 173.747L116.357 162.767H120.467L114.347 178.667H110.387ZM126.578 179.027C125.438 179.027 124.468 178.817 123.668 178.397C122.868 177.957 122.258 177.357 121.838 176.597C121.418 175.837 121.208 174.977 121.208 174.017C121.208 172.417 121.678 171.217 122.618 170.417C123.578 169.617 125.008 169.217 126.908 169.217H131.648V168.467C131.648 167.427 131.408 166.697 130.928 166.277C130.468 165.857 129.728 165.647 128.708 165.647C127.808 165.647 127.158 165.807 126.758 166.127C126.358 166.427 126.128 166.807 126.068 167.267H122.108C122.168 166.347 122.458 165.527 122.978 164.807C123.518 164.067 124.278 163.487 125.258 163.067C126.258 162.627 127.458 162.407 128.858 162.407C130.218 162.407 131.398 162.607 132.398 163.007C133.418 163.407 134.208 164.057 134.768 164.957C135.328 165.837 135.608 167.027 135.608 168.527V174.617C135.608 175.457 135.618 176.197 135.638 176.837C135.678 177.457 135.738 178.067 135.818 178.667H132.128C132.048 178.227 131.998 177.897 131.978 177.677C131.978 177.437 131.978 177.087 131.978 176.627C131.558 177.267 130.898 177.827 129.998 178.307C129.098 178.787 127.958 179.027 126.578 179.027ZM127.808 175.967C128.448 175.967 129.058 175.857 129.638 175.637C130.238 175.397 130.718 175.037 131.078 174.557C131.458 174.057 131.648 173.427 131.648 172.667V171.917H127.658C126.898 171.917 126.298 172.097 125.858 172.457C125.438 172.797 125.228 173.267 125.228 173.867C125.228 174.507 125.448 175.017 125.888 175.397C126.328 175.777 126.968 175.967 127.808 175.967ZM144.464 178.847C143.244 178.847 142.244 178.687 141.464 178.367C140.704 178.027 140.144 177.467 139.784 176.687C139.424 175.887 139.244 174.777 139.244 173.357V157.667H143.174V172.877C143.174 173.897 143.314 174.587 143.594 174.947C143.894 175.307 144.474 175.487 145.334 175.487C145.554 175.487 145.744 175.487 145.904 175.487C146.064 175.467 146.224 175.447 146.384 175.427V178.727C146.284 178.767 146.114 178.797 145.874 178.817C145.634 178.837 145.384 178.847 145.124 178.847C144.864 178.847 144.644 178.847 144.464 178.847ZM149.296 178.667V162.767H153.226V178.667H149.296ZM151.246 161.237C150.546 161.237 149.966 161.017 149.506 160.577C149.066 160.137 148.846 159.567 148.846 158.867C148.846 158.167 149.066 157.597 149.506 157.157C149.966 156.717 150.536 156.497 151.216 156.497C151.936 156.497 152.516 156.717 152.956 157.157C153.416 157.597 153.646 158.167 153.646 158.867C153.646 159.567 153.416 160.137 152.956 160.577C152.516 161.017 151.946 161.237 151.246 161.237ZM164.161 179.027C162.701 179.027 161.381 178.727 160.201 178.127C159.021 177.507 158.081 176.597 157.381 175.397C156.701 174.177 156.361 172.667 156.361 170.867V170.267C156.361 168.547 156.721 167.107 157.441 165.947C158.161 164.787 159.111 163.907 160.291 163.307C161.471 162.707 162.761 162.407 164.161 162.407C165.661 162.407 166.931 162.657 167.971 163.157C169.011 163.657 169.811 164.347 170.371 165.227C170.951 166.107 171.281 167.077 171.361 168.137H167.341C167.181 167.417 166.851 166.847 166.351 166.427C165.871 165.987 165.141 165.767 164.161 165.767C163.481 165.767 162.851 165.927 162.271 166.247C161.711 166.567 161.251 167.057 160.891 167.717C160.551 168.377 160.381 169.227 160.381 170.267V170.867C160.381 171.987 160.541 172.907 160.861 173.627C161.201 174.327 161.651 174.847 162.211 175.187C162.791 175.507 163.441 175.667 164.161 175.667C164.941 175.667 165.611 175.467 166.171 175.067C166.751 174.647 167.141 174.057 167.341 173.297H171.361C171.241 174.437 170.861 175.447 170.221 176.327C169.581 177.207 168.731 177.877 167.671 178.337C166.631 178.797 165.461 179.027 164.161 179.027ZM178.814 179.027C177.674 179.027 176.704 178.817 175.904 178.397C175.104 177.957 174.494 177.357 174.074 176.597C173.654 175.837 173.444 174.977 173.444 174.017C173.444 172.417 173.914 171.217 174.854 170.417C175.814 169.617 177.244 169.217 179.144 169.217H183.884V168.467C183.884 167.427 183.644 166.697 183.164 166.277C182.704 165.857 181.964 165.647 180.944 165.647C180.044 165.647 179.394 165.807 178.994 166.127C178.594 166.427 178.364 166.807 178.304 167.267H174.344C174.404 166.347 174.694 165.527 175.214 164.807C175.754 164.067 176.514 163.487 177.494 163.067C178.494 162.627 179.694 162.407 181.094 162.407C182.454 162.407 183.634 162.607 184.634 163.007C185.654 163.407 186.444 164.057 187.004 164.957C187.564 165.837 187.844 167.027 187.844 168.527V174.617C187.844 175.457 187.854 176.197 187.874 176.837C187.914 177.457 187.974 178.067 188.054 178.667H184.364C184.284 178.227 184.234 177.897 184.214 177.677C184.214 177.437 184.214 177.087 184.214 176.627C183.794 177.267 183.134 177.827 182.234 178.307C181.334 178.787 180.194 179.027 178.814 179.027ZM180.044 175.967C180.684 175.967 181.294 175.857 181.874 175.637C182.474 175.397 182.954 175.037 183.314 174.557C183.694 174.057 183.884 173.427 183.884 172.667V171.917H179.894C179.134 171.917 178.534 172.097 178.094 172.457C177.674 172.797 177.464 173.267 177.464 173.867C177.464 174.507 177.684 175.017 178.124 175.397C178.564 175.777 179.204 175.967 180.044 175.967Z" fill="white"/>
</g>
</g>
<defs>
<filter id="filter0_d_12_2121" x="-4.44495" y="0" width="237.89" height="237.89" filterUnits="userSpaceOnUse" color-interpolation-filters="sRGB">
<feFlood flood-opacity="0" result="BackgroundImageFix"/>
<feColorMatrix in="SourceAlpha" type="matrix" values="0 0 0 0 0 0 0 0 0 0 0 0 0 0 0 0 0 0 127 0" result="hardAlpha"/>
<feOffset dy="4.44495"/>
<feGaussianBlur stdDeviation="2.22248"/>
<feComposite in2="hardAlpha" operator="out"/>
<feColorMatrix type="matrix" values="0 0 0 0 0 0 0 0 0 0 0 0 0 0 0 0 0 0 0.25 0"/>
<feBlend mode="normal" in2="BackgroundImageFix" result="effect1_dropShadow_12_2121"/>
<feBlend mode="normal" in="SourceGraphic" in2="effect1_dropShadow_12_2121" result="shape"/>
</filter>
<clipPath id="clip0_12_2121">
<rect width="229" height="229" rx="13.3349" fill="white"/>
</clipPath>
</defs>
</svg>
